<?xml version="1.0" encoding="UTF-8"?>
<svg id="Layer_2" data-name="Layer 2" xmlns="http://www.w3.org/2000/svg" viewBox="0 0 121.5 117.06">
  <defs>
    <style>
      .cls-1 {
        fill: #b2521d;
      }

      .cls-2, .cls-3 {
        fill: #c15f2f;
      }

      .cls-4 {
        fill: none;
        stroke: #b2521d;
      }

      .cls-4, .cls-3, .cls-5 {
        stroke-linecap: round;
        stroke-miterlimit: 10;
        stroke-width: 7px;
      }

      .cls-3 {
        stroke: #c15f2f;
      }

      .cls-6 {
        fill: #e5ae7c;
      }

      .cls-5 {
        fill: #db8b63;
        stroke: #db8b63;
      }
    </style>
  </defs>
  <path class="cls-5" d="M81,39c0-3-4.01-9.44-25-10-21.16-.56-25,7-25,10l-2.88,64.4c-.07,1.64.82,3.18,2.29,3.91,7.03,3.52,28.56,12.08,53.03.02,1.55-.77,2.48-2.41,2.36-4.13l-4.79-64.2Z"/>
  <path class="cls-4" d="M74,88c5.1-3.36,10.53-6.04,14.42-9.98,2.98-2.88,4.6-9.58,6.32-14.62,2.56-6.93,3.93-14.58,7.57-20.83,3.22-4.58,10.56-8.13,15.69-11.56"/>
  <path class="cls-6" d="M60.5,60.29l3.05,36.94c.46,5.51-3.64,10.35-9.16,10.81-5.9.53-11.04-4.35-10.84-10.26,0,0,1.05-37.06,1.05-37.06.12-4.4,3.79-7.86,8.18-7.73,4.08.12,7.37,3.33,7.71,7.3h0Z"/>
  <ellipse class="cls-3" cx="56" cy="37.5" rx="23" ry="7.5"/>
  <path class="cls-2" d="M33.75,52.95c.25-6.95,6.25-6.95,6.25-6.95l2.63-13.08,36.37,10.08s3.5-.5,4.87-7.04c-1.68-4.07-7.62-9.92-27.77-10.46-12.06-.32-20.54,1.82-25.21,6.37-2.12,2.06-3.35,4.62-3.38,7.04l-2.88,64.34c-.14,3.02,1.52,5.85,4.22,7.2,3.89,1.94,10.76,4.79,19.55,6.03-17.38-3.52-16.64-12.76-16.64-12.76,0,0,1.67-41.72,2-50.76Z"/>
  <path class="cls-1" d="M63.47,32.05C61.77,20.96,53.44,0,34,0S0,19.77,0,45c0,21.01,9.44,35.81,25.43,40.24l.28-6.19c-12.42-4.18-19.7-16.6-19.7-34.05C6,23.13,18.3,6,34,6c19.14,0,23.49,26.69,23.53,26.96.25,1.64,1.78,2.76,3.42,2.51,1.64-.25,2.76-1.78,2.51-3.42Z"/>
</svg>